<svg width="300" height="300" viewBox="0 0 300 300" fill="none" xmlns="http://www.w3.org/2000/svg">
<path fill-rule="evenodd" clip-rule="evenodd" d="M229.291 70C224.439 36.0771 195.265 10 160 10L80 10C41.3401 10 9.99999 41.3401 9.99999 80L9.99998 160C9.99998 195.265 36.077 224.439 70 229.291L70 140C70 101.34 101.34 70 140 70L229.291 70Z" fill="#9C9C9C" fill-opacity="0.1"/>
<path fill-rule="evenodd" clip-rule="evenodd" d="M238.588 70C237.532 60.675 235.633 52.6733 232.077 45.2893C224.214 28.9607 211.039 15.786 194.711 7.92253C185.929 3.69358 176.274 1.80894 164.558 0.896722C153.041 -6.85127e-05 138.724 -3.92467e-05 120.427 2.01888e-05L119.573 2.01142e-05C101.275 -4.25206e-05 86.9592 -7.42897e-05 75.4416 0.896714C63.7259 1.80893 54.0707 3.69357 45.2893 7.92251C28.9607 15.7859 15.7859 28.9607 7.92249 45.2893C3.69354 54.0707 1.8089 63.7259 0.896682 75.4416C-0.000109053 86.9593 -7.97866e-05 101.275 -2.03511e-05 119.573L-2.04257e-05 120.427C-8.30605e-05 138.724 -0.00011483 153.041 0.896674 164.558C1.80889 176.274 3.69353 185.929 7.92247 194.711C15.7859 211.039 28.9606 224.214 45.2893 232.077C52.6732 235.633 60.6749 237.532 70 238.588L70 218.436C63.2238 217.518 58.2321 216.112 53.967 214.058C41.7205 208.161 31.8394 198.279 25.9418 186.033C23.2386 180.42 21.6572 173.548 20.8363 163.006C20.007 152.355 20 138.816 20 120C20 101.184 20.007 87.6448 20.8363 76.9941C21.6572 66.4521 23.2386 59.5803 25.9418 53.967C31.8394 41.7205 41.7205 31.8395 53.967 25.9419C59.5803 23.2386 66.4521 21.6572 76.9941 20.8364C87.6447 20.0071 101.184 20 120 20C138.816 20 152.355 20.0071 163.006 20.8364C173.548 21.6572 180.42 23.2386 186.033 25.9419C198.279 31.8395 208.161 41.7205 214.058 53.967C216.112 58.2322 217.518 63.2238 218.436 70L238.588 70Z" fill="#0D74CE"/>
<rect x="290" y="290" width="220" height="220" rx="70" transform="rotate(-180 290 290)" fill="#EFEFEF" fill-opacity="0.15"/>
<path fill-rule="evenodd" clip-rule="evenodd" d="M180.427 300L179.573 300C161.275 300 146.959 300 135.442 299.103C123.726 298.191 114.071 296.306 105.289 292.077C88.9606 284.214 75.7859 271.039 67.9225 254.711C63.6935 245.929 61.8089 236.274 60.8967 224.558C59.9999 213.041 59.9999 198.724 60 180.427L60 179.573C59.9999 161.275 59.9999 146.959 60.8967 135.442C61.8089 123.726 63.6935 114.071 67.9225 105.289C75.7859 88.9607 88.9607 75.7859 105.289 67.9225C114.071 63.6936 123.726 61.8089 135.442 60.8967C146.959 59.9999 161.275 60 179.573 60L180.427 60C198.724 60 213.041 59.9999 224.558 60.8967C236.274 61.8089 245.929 63.6936 254.711 67.9225C271.039 75.786 284.214 88.9607 292.077 105.289C296.306 114.071 298.191 123.726 299.103 135.442C300 146.959 300 161.275 300 179.573L300 180.427C300 198.725 300 213.041 299.103 224.558C298.191 236.274 296.306 245.929 292.077 254.711C284.214 271.039 271.039 284.214 254.711 292.078C245.929 296.306 236.274 298.191 224.558 299.103C213.041 300 198.725 300 180.427 300ZM223.006 279.164C233.548 278.343 240.42 276.761 246.033 274.058C258.279 268.161 268.16 258.279 274.058 246.033C276.761 240.42 278.343 233.548 279.164 223.006C279.993 212.355 280 198.816 280 180C280 161.184 279.993 147.645 279.164 136.994C278.343 126.452 276.761 119.58 274.058 113.967C268.161 101.721 258.279 91.8395 246.033 85.9419C240.42 83.2386 233.548 81.6572 223.006 80.8364C212.355 80.0071 198.816 80 180 80C161.184 80 147.645 80.0071 136.994 80.8364C126.452 81.6572 119.58 83.2386 113.967 85.9419C101.72 91.8394 91.8394 101.721 85.9418 113.967C83.2386 119.58 81.6572 126.452 80.8363 136.994C80.007 147.645 80 161.184 80 180C80 198.816 80.007 212.355 80.8363 223.006C81.6571 233.548 83.2386 240.42 85.9418 246.033C91.8394 258.279 101.72 268.161 113.967 274.058C119.58 276.761 126.452 278.343 136.994 279.164C147.645 279.993 161.184 280 180 280C198.816 280 212.355 279.993 223.006 279.164Z" fill="#0090FF"/>
<path d="M150.417 243.441L209.583 116.558" stroke="#0D74CE" stroke-width="20" stroke-linecap="round"/>
</svg>
